<svg xmlns="http://www.w3.org/2000/svg" width="100" height="28" viewBox="0 0 100 28" role="img" aria-label="Substack">
  <rect x="0" y="0" width="100" height="28" rx="4" fill="#FF6719"/>
  <path d="M508 195Q508 100 439.0 45.0Q370 -10 248 -10Q130 -10 48 30V150Q93 130 147.0 113.5Q201 97 257 97Q321 97 351.0 122.0Q381 147 381 188Q381 233 343.0 259.0Q305 285 232 316Q188 335 148.0 361.0Q108 387 82.0 427.0Q56 467 56 529Q56 621 120.5 672.5Q185 724 293 724Q350 724 399.5 712.0Q449 700 499 678L458 575Q413 594 372.5 605.0Q332 616 289 616Q237 616 210.0 592.5Q183 569 183 532Q183 502 198.0 482.0Q213 462 244.5 445.0Q276 428 326 406Q383 381 424.0 354.0Q465 327 486.5 289.0Q508 251 508 195ZM1112 542V0H1013L996 70H990Q963 28 917.5 9.0Q872 -10 821 -10Q730 -10 678.5 37.0Q627 84 627 188V542H753V213Q753 92 853 92Q929 92 957.5 139.5Q986 187 986 277V542ZM1399 580Q1399 548 1397.0 518.0Q1395 488 1393 471H1399Q1421 505 1459.0 528.5Q1497 552 1558 552Q1652 552 1710.5 481.0Q1769 410 1769 272Q1769 132 1710.0 61.0Q1651 -10 1555 -10Q1494 -10 1457.5 12.0Q1421 34 1399 63H1390L1367 0H1273V760H1399ZM1522 450Q1454 450 1427.0 409.0Q1400 368 1399 283V272Q1399 185 1425.5 139.0Q1452 93 1524 93Q1580 93 1610.0 139.5Q1640 186 1640 273Q1640 362 1609.5 406.0Q1579 450 1522 450ZM2268 157Q2268 75 2209.5 32.5Q2151 -10 2042 -10Q1985 -10 1944.5 -2.0Q1904 6 1866 23V130Q1906 111 1954.5 98.0Q2003 85 2046 85Q2098 85 2121.0 101.0Q2144 117 2144 144Q2144 160 2135.0 172.5Q2126 185 2099.5 200.0Q2073 215 2021 237Q1969 257 1934.5 278.5Q1900 300 1882.5 329.0Q1865 358 1865 404Q1865 477 1922.5 514.5Q1980 552 2076 552Q2126 552 2170.5 542.0Q2215 532 2260 512L2220 419Q2182 435 2146.0 446.0Q2110 457 2072 457Q1989 457 1989 410Q1989 393 1999.5 381.0Q2010 369 2036.5 355.5Q2063 342 2112 323Q2160 304 2195.0 283.5Q2230 263 2249.0 233.0Q2268 203 2268 157ZM2599 91Q2622 91 2644.5 95.5Q2667 100 2686 106V12Q2666 3 2634.0 -3.5Q2602 -10 2567 -10Q2521 -10 2483.0 5.5Q2445 21 2423.0 59.0Q2401 97 2401 165V447H2328V502L2408 546L2448 661H2527V542H2681V447H2527V166Q2527 128 2547.0 109.5Q2567 91 2599 91ZM3011 552Q3116 552 3170.5 506.0Q3225 460 3225 364V0H3136L3111 75H3107Q3072 31 3033.0 10.5Q2994 -10 2927 -10Q2854 -10 2806.0 31.0Q2758 72 2758 158Q2758 242 2819.5 284.0Q2881 326 3006 331L3100 334V361Q3100 412 3075.0 434.5Q3050 457 3005 457Q2964 457 2926.5 445.0Q2889 433 2852 417L2812 505Q2852 526 2903.5 539.0Q2955 552 3011 552ZM3034 254Q2951 251 2919.0 225.5Q2887 200 2887 157Q2887 118 2909.5 101.5Q2932 85 2969 85Q3024 85 3062.0 116.5Q3100 148 3100 210V256ZM3602 -10Q3485 -10 3418.0 57.0Q3351 124 3351 268Q3351 368 3384.5 430.5Q3418 493 3477.0 522.5Q3536 552 3612 552Q3663 552 3703.0 542.0Q3743 532 3771 518L3734 419Q3703 431 3672.0 439.5Q3641 448 3612 448Q3480 448 3480 269Q3480 182 3513.5 138.0Q3547 94 3610 94Q3655 94 3690.0 105.0Q3725 116 3757 135V26Q3726 8 3690.5 -1.0Q3655 -10 3602 -10ZM4009 399Q4009 373 4007.0 344.0Q4005 315 4003 289H4006Q4018 307 4036.0 330.0Q4054 353 4070 371L4230 542H4373L4156 308L4387 0H4240L4072 232L4009 180V0H3884V760H4009Z" fill="#FFFFFF" transform="translate(22.281 18.688) scale(0.01250 -0.01250)"/>
</svg>
